<?xml version="1.0" encoding="utf-8" standalone="no"?>
<!DOCTYPE svg PUBLIC "-//W3C//DTD SVG 1.1//EN"
  "http://www.w3.org/Graphics/SVG/1.1/DTD/svg11.dtd">
<svg xmlns:xlink="http://www.w3.org/1999/xlink" width="432pt" height="288pt" viewBox="0 0 432 288" xmlns="http://www.w3.org/2000/svg" version="1.1">
 <metadata>
  <rdf:RDF xmlns:dc="http://purl.org/dc/elements/1.1/" xmlns:cc="http://creativecommons.org/ns#" xmlns:rdf="http://www.w3.org/1999/02/22-rdf-syntax-ns#">
   <cc:Work>
    <dc:type rdf:resource="http://purl.org/dc/dcmitype/StillImage"/>
    <dc:date>2022-05-06T20:29:07.521518</dc:date>
    <dc:format>image/svg+xml</dc:format>
    <dc:creator>
     <cc:Agent>
      <dc:title>Matplotlib v3.5.0, https://matplotlib.org/</dc:title>
     </cc:Agent>
    </dc:creator>
   </cc:Work>
  </rdf:RDF>
 </metadata>
 <defs>
  <style type="text/css">*{stroke-linejoin: round; stroke-linecap: butt}</style>
 </defs>
 <g id="figure_1">
  <g id="patch_1">
   <path d="M 0 288 
L 432 288 
L 432 0 
L 0 0 
L 0 288 
z
" style="fill: none"/>
  </g>
  <g id="axes_1">
   <g id="patch_2">
    <path d="M 54 252 
L 388.8 252 
L 388.8 34.56 
L 54 34.56 
z
" style="fill: #ffffff"/>
   </g>
   <g id="patch_3">
    <path d="M 69.218182 252 
L 72.261818 252 
L 72.261818 228.035761 
L 69.218182 228.035761 
z
" clip-path="url(#p22ec33c4d3)" style="fill: #1f77b4"/>
   </g>
   <g id="patch_4">
    <path d="M 72.261818 252 
L 75.305455 252 
L 75.305455 234.815118 
L 72.261818 234.815118 
z
" clip-path="url(#p22ec33c4d3)" style="fill: #1f77b4"/>
   </g>
   <g id="patch_5">
    <path d="M 75.305455 252 
L 78.349091 252 
L 78.349091 223.069487 
L 75.305455 223.069487 
z
" clip-path="url(#p22ec33c4d3)" style="fill: #1f77b4"/>
   </g>
   <g id="patch_6">
    <path d="M 78.349091 252 
L 81.392727 252 
L 81.392727 203.362053 
L 78.349091 203.362053 
z
" clip-path="url(#p22ec33c4d3)" style="fill: #1f77b4"/>
   </g>
   <g id="patch_7">
    <path d="M 81.392727 252 
L 84.436364 252 
L 84.436364 179.634303 
L 81.392727 179.634303 
z
" clip-path="url(#p22ec33c4d3)" style="fill: #1f77b4"/>
   </g>
   <g id="patch_8">
    <path d="M 84.436364 252 
L 87.48 252 
L 87.48 146.446985 
L 84.436364 146.446985 
z
" clip-path="url(#p22ec33c4d3)" style="fill: #1f77b4"/>
   </g>
   <g id="patch_9">
    <path d="M 87.48 252 
L 90.523636 252 
L 90.523636 119.960194 
L 87.48 119.960194 
z
" clip-path="url(#p22ec33c4d3)" style="fill: #1f77b4"/>
   </g>
   <g id="patch_10">
    <path d="M 90.523636 252 
L 93.567273 252 
L 93.567273 99.622122 
L 90.523636 99.622122 
z
" clip-path="url(#p22ec33c4d3)" style="fill: #1f77b4"/>
   </g>
   <g id="patch_11">
    <path d="M 93.567273 252 
L 96.610909 252 
L 96.610909 79.28405 
L 93.567273 79.28405 
z
" clip-path="url(#p22ec33c4d3)" style="fill: #1f77b4"/>
   </g>
   <g id="patch_12">
    <path d="M 96.610909 252 
L 99.654545 252 
L 99.654545 59.261298 
L 96.610909 59.261298 
z
" clip-path="url(#p22ec33c4d3)" style="fill: #1f77b4"/>
   </g>
   <g id="patch_13">
    <path d="M 99.654545 252 
L 102.698182 252 
L 102.698182 53.270238 
L 99.654545 53.270238 
z
" clip-path="url(#p22ec33c4d3)" style="fill: #1f77b4"/>
   </g>
   <g id="patch_14">
    <path d="M 102.698182 252 
L 105.741818 252 
L 105.741818 44.914286 
L 102.698182 44.914286 
z
" clip-path="url(#p22ec33c4d3)" style="fill: #1f77b4"/>
   </g>
   <g id="patch_15">
    <path d="M 105.741818 252 
L 108.785455 252 
L 108.785455 46.64854 
L 105.741818 46.64854 
z
" clip-path="url(#p22ec33c4d3)" style="fill: #1f77b4"/>
   </g>
   <g id="patch_16">
    <path d="M 108.785455 252 
L 111.829091 252 
L 111.829091 56.265768 
L 108.785455 56.265768 
z
" clip-path="url(#p22ec33c4d3)" style="fill: #1f77b4"/>
   </g>
   <g id="patch_17">
    <path d="M 111.829091 252 
L 114.872727 252 
L 114.872727 65.094698 
L 111.829091 65.094698 
z
" clip-path="url(#p22ec33c4d3)" style="fill: #1f77b4"/>
   </g>
   <g id="patch_18">
    <path d="M 114.872727 252 
L 117.916364 252 
L 117.916364 81.097134 
L 114.872727 81.097134 
z
" clip-path="url(#p22ec33c4d3)" style="fill: #1f77b4"/>
   </g>
   <g id="patch_19">
    <path d="M 117.916364 252 
L 120.96 252 
L 120.96 87.482343 
L 117.916364 87.482343 
z
" clip-path="url(#p22ec33c4d3)" style="fill: #1f77b4"/>
   </g>
   <g id="patch_20">
    <path d="M 120.96 252 
L 124.003636 252 
L 124.003636 107.110947 
L 120.96 107.110947 
z
" clip-path="url(#p22ec33c4d3)" style="fill: #1f77b4"/>
   </g>
   <g id="patch_21">
    <path d="M 124.003636 252 
L 127.047273 252 
L 127.047273 126.030083 
L 124.003636 126.030083 
z
" clip-path="url(#p22ec33c4d3)" style="fill: #1f77b4"/>
   </g>
   <g id="patch_22">
    <path d="M 127.047273 252 
L 130.090909 252 
L 130.090909 137.381565 
L 127.047273 137.381565 
z
" clip-path="url(#p22ec33c4d3)" style="fill: #1f77b4"/>
   </g>
   <g id="patch_23">
    <path d="M 130.090909 252 
L 133.134545 252 
L 133.134545 146.052836 
L 130.090909 146.052836 
z
" clip-path="url(#p22ec33c4d3)" style="fill: #1f77b4"/>
   </g>
   <g id="patch_24">
    <path d="M 133.134545 252 
L 136.178182 252 
L 136.178182 159.84804 
L 133.134545 159.84804 
z
" clip-path="url(#p22ec33c4d3)" style="fill: #1f77b4"/>
   </g>
   <g id="patch_25">
    <path d="M 136.178182 252 
L 139.221818 252 
L 139.221818 165.996759 
L 136.178182 165.996759 
z
" clip-path="url(#p22ec33c4d3)" style="fill: #1f77b4"/>
   </g>
   <g id="patch_26">
    <path d="M 139.221818 252 
L 142.265455 252 
L 142.265455 170.963032 
L 139.221818 170.963032 
z
" clip-path="url(#p22ec33c4d3)" style="fill: #1f77b4"/>
   </g>
   <g id="patch_27">
    <path d="M 142.265455 252 
L 145.309091 252 
L 145.309091 180.974409 
L 142.265455 180.974409 
z
" clip-path="url(#p22ec33c4d3)" style="fill: #1f77b4"/>
   </g>
   <g id="patch_28">
    <path d="M 145.309091 252 
L 148.352727 252 
L 148.352727 189.48802 
L 145.309091 189.48802 
z
" clip-path="url(#p22ec33c4d3)" style="fill: #1f77b4"/>
   </g>
   <g id="patch_29">
    <path d="M 148.352727 252 
L 151.396364 252 
L 151.396364 189.56685 
L 148.352727 189.56685 
z
" clip-path="url(#p22ec33c4d3)" style="fill: #1f77b4"/>
   </g>
   <g id="patch_30">
    <path d="M 151.396364 252 
L 154.44 252 
L 154.44 195.952058 
L 151.396364 195.952058 
z
" clip-path="url(#p22ec33c4d3)" style="fill: #1f77b4"/>
   </g>
   <g id="patch_31">
    <path d="M 154.44 252 
L 157.483636 252 
L 157.483636 196.503866 
L 154.44 196.503866 
z
" clip-path="url(#p22ec33c4d3)" style="fill: #1f77b4"/>
   </g>
   <g id="patch_32">
    <path d="M 157.483636 252 
L 160.527273 252 
L 160.527273 202.573756 
L 157.483636 202.573756 
z
" clip-path="url(#p22ec33c4d3)" style="fill: #1f77b4"/>
   </g>
   <g id="patch_33">
    <path d="M 160.527273 252 
L 163.570909 252 
L 163.570909 202.731416 
L 160.527273 202.731416 
z
" clip-path="url(#p22ec33c4d3)" style="fill: #1f77b4"/>
   </g>
   <g id="patch_34">
    <path d="M 163.570909 252 
L 166.614545 252 
L 166.614545 205.805775 
L 163.570909 205.805775 
z
" clip-path="url(#p22ec33c4d3)" style="fill: #1f77b4"/>
   </g>
   <g id="patch_35">
    <path d="M 166.614545 252 
L 169.658182 252 
L 169.658182 214.792365 
L 166.614545 214.792365 
z
" clip-path="url(#p22ec33c4d3)" style="fill: #1f77b4"/>
   </g>
   <g id="patch_36">
    <path d="M 169.658182 252 
L 172.701818 252 
L 172.701818 213.767578 
L 169.658182 213.767578 
z
" clip-path="url(#p22ec33c4d3)" style="fill: #1f77b4"/>
   </g>
   <g id="patch_37">
    <path d="M 172.701818 252 
L 175.745455 252 
L 175.745455 219.128 
L 172.701818 219.128 
z
" clip-path="url(#p22ec33c4d3)" style="fill: #1f77b4"/>
   </g>
   <g id="patch_38">
    <path d="M 175.745455 252 
L 178.789091 252 
L 178.789091 225.749698 
L 175.745455 225.749698 
z
" clip-path="url(#p22ec33c4d3)" style="fill: #1f77b4"/>
   </g>
   <g id="patch_39">
    <path d="M 178.789091 252 
L 181.832727 252 
L 181.832727 225.040231 
L 178.789091 225.040231 
z
" clip-path="url(#p22ec33c4d3)" style="fill: #1f77b4"/>
   </g>
   <g id="patch_40">
    <path d="M 181.832727 252 
L 184.876364 252 
L 184.876364 226.616825 
L 181.832727 226.616825 
z
" clip-path="url(#p22ec33c4d3)" style="fill: #1f77b4"/>
   </g>
   <g id="patch_41">
    <path d="M 184.876364 252 
L 187.92 252 
L 187.92 230.164163 
L 184.876364 230.164163 
z
" clip-path="url(#p22ec33c4d3)" style="fill: #1f77b4"/>
   </g>
   <g id="patch_42">
    <path d="M 187.92 252 
L 190.963636 252 
L 190.963636 230.637142 
L 187.92 230.637142 
z
" clip-path="url(#p22ec33c4d3)" style="fill: #1f77b4"/>
   </g>
   <g id="patch_43">
    <path d="M 190.963636 252 
L 194.007273 252 
L 194.007273 233.396183 
L 190.963636 233.396183 
z
" clip-path="url(#p22ec33c4d3)" style="fill: #1f77b4"/>
   </g>
   <g id="patch_44">
    <path d="M 194.007273 252 
L 197.050909 252 
L 197.050909 236.312883 
L 194.007273 236.312883 
z
" clip-path="url(#p22ec33c4d3)" style="fill: #1f77b4"/>
   </g>
   <g id="patch_45">
    <path d="M 197.050909 252 
L 200.094545 252 
L 200.094545 236.943521 
L 197.050909 236.943521 
z
" clip-path="url(#p22ec33c4d3)" style="fill: #1f77b4"/>
   </g>
   <g id="patch_46">
    <path d="M 200.094545 252 
L 203.138182 252 
L 203.138182 238.125967 
L 200.094545 238.125967 
z
" clip-path="url(#p22ec33c4d3)" style="fill: #1f77b4"/>
   </g>
   <g id="patch_47">
    <path d="M 203.138182 252 
L 206.181818 252 
L 206.181818 239.308413 
L 203.138182 239.308413 
z
" clip-path="url(#p22ec33c4d3)" style="fill: #1f77b4"/>
   </g>
   <g id="patch_48">
    <path d="M 206.181818 252 
L 209.225455 252 
L 209.225455 241.279156 
L 206.181818 241.279156 
z
" clip-path="url(#p22ec33c4d3)" style="fill: #1f77b4"/>
   </g>
   <g id="patch_49">
    <path d="M 209.225455 252 
L 212.269091 252 
L 212.269091 240.885007 
L 209.225455 240.885007 
z
" clip-path="url(#p22ec33c4d3)" style="fill: #1f77b4"/>
   </g>
   <g id="patch_50">
    <path d="M 212.269091 252 
L 215.312727 252 
L 215.312727 242.698091 
L 212.269091 242.698091 
z
" clip-path="url(#p22ec33c4d3)" style="fill: #1f77b4"/>
   </g>
   <g id="patch_51">
    <path d="M 215.312727 252 
L 218.356364 252 
L 218.356364 243.09224 
L 215.312727 243.09224 
z
" clip-path="url(#p22ec33c4d3)" style="fill: #1f77b4"/>
   </g>
   <g id="patch_52">
    <path d="M 218.356364 252 
L 221.4 252 
L 221.4 243.801708 
L 218.356364 243.801708 
z
" clip-path="url(#p22ec33c4d3)" style="fill: #1f77b4"/>
   </g>
   <g id="patch_53">
    <path d="M 221.4 252 
L 224.443636 252 
L 224.443636 245.220643 
L 221.4 245.220643 
z
" clip-path="url(#p22ec33c4d3)" style="fill: #1f77b4"/>
   </g>
   <g id="patch_54">
    <path d="M 224.443636 252 
L 227.487273 252 
L 227.487273 243.959367 
L 224.443636 243.959367 
z
" clip-path="url(#p22ec33c4d3)" style="fill: #1f77b4"/>
   </g>
   <g id="patch_55">
    <path d="M 227.487273 252 
L 230.530909 252 
L 230.530909 245.457132 
L 227.487273 245.457132 
z
" clip-path="url(#p22ec33c4d3)" style="fill: #1f77b4"/>
   </g>
   <g id="patch_56">
    <path d="M 230.530909 252 
L 233.574545 252 
L 233.574545 244.432345 
L 230.530909 244.432345 
z
" clip-path="url(#p22ec33c4d3)" style="fill: #1f77b4"/>
   </g>
   <g id="patch_57">
    <path d="M 233.574545 252 
L 236.618182 252 
L 236.618182 244.826494 
L 233.574545 244.826494 
z
" clip-path="url(#p22ec33c4d3)" style="fill: #1f77b4"/>
   </g>
   <g id="patch_58">
    <path d="M 236.618182 252 
L 239.661818 252 
L 239.661818 247.743194 
L 236.618182 247.743194 
z
" clip-path="url(#p22ec33c4d3)" style="fill: #1f77b4"/>
   </g>
   <g id="patch_59">
    <path d="M 239.661818 252 
L 242.705455 252 
L 242.705455 247.033727 
L 239.661818 247.033727 
z
" clip-path="url(#p22ec33c4d3)" style="fill: #1f77b4"/>
   </g>
   <g id="patch_60">
    <path d="M 242.705455 252 
L 245.749091 252 
L 245.749091 248.058513 
L 242.705455 248.058513 
z
" clip-path="url(#p22ec33c4d3)" style="fill: #1f77b4"/>
   </g>
   <g id="patch_61">
    <path d="M 245.749091 252 
L 248.792727 252 
L 248.792727 247.743194 
L 245.749091 247.743194 
z
" clip-path="url(#p22ec33c4d3)" style="fill: #1f77b4"/>
   </g>
   <g id="patch_62">
    <path d="M 248.792727 252 
L 251.836364 252 
L 251.836364 247.743194 
L 248.792727 247.743194 
z
" clip-path="url(#p22ec33c4d3)" style="fill: #1f77b4"/>
   </g>
   <g id="patch_63">
    <path d="M 251.836364 252 
L 254.88 252 
L 254.88 247.822024 
L 251.836364 247.822024 
z
" clip-path="url(#p22ec33c4d3)" style="fill: #1f77b4"/>
   </g>
   <g id="patch_64">
    <path d="M 254.88 252 
L 257.923636 252 
L 257.923636 247.979684 
L 254.88 247.979684 
z
" clip-path="url(#p22ec33c4d3)" style="fill: #1f77b4"/>
   </g>
   <g id="patch_65">
    <path d="M 257.923636 252 
L 260.967273 252 
L 260.967273 248.689151 
L 257.923636 248.689151 
z
" clip-path="url(#p22ec33c4d3)" style="fill: #1f77b4"/>
   </g>
   <g id="patch_66">
    <path d="M 260.967273 252 
L 264.010909 252 
L 264.010909 249.713938 
L 260.967273 249.713938 
z
" clip-path="url(#p22ec33c4d3)" style="fill: #1f77b4"/>
   </g>
   <g id="patch_67">
    <path d="M 264.010909 252 
L 267.054545 252 
L 267.054545 248.689151 
L 264.010909 248.689151 
z
" clip-path="url(#p22ec33c4d3)" style="fill: #1f77b4"/>
   </g>
   <g id="patch_68">
    <path d="M 267.054545 252 
L 270.098182 252 
L 270.098182 250.186916 
L 267.054545 250.186916 
z
" clip-path="url(#p22ec33c4d3)" style="fill: #1f77b4"/>
   </g>
   <g id="patch_69">
    <path d="M 270.098182 252 
L 273.141818 252 
L 273.141818 249.240959 
L 270.098182 249.240959 
z
" clip-path="url(#p22ec33c4d3)" style="fill: #1f77b4"/>
   </g>
   <g id="patch_70">
    <path d="M 273.141818 252 
L 276.185455 252 
L 276.185455 250.108086 
L 273.141818 250.108086 
z
" clip-path="url(#p22ec33c4d3)" style="fill: #1f77b4"/>
   </g>
   <g id="patch_71">
    <path d="M 276.185455 252 
L 279.229091 252 
L 279.229091 249.477448 
L 276.185455 249.477448 
z
" clip-path="url(#p22ec33c4d3)" style="fill: #1f77b4"/>
   </g>
   <g id="patch_72">
    <path d="M 279.229091 252 
L 282.272727 252 
L 282.272727 250.659895 
L 279.229091 250.659895 
z
" clip-path="url(#p22ec33c4d3)" style="fill: #1f77b4"/>
   </g>
   <g id="patch_73">
    <path d="M 282.272727 252 
L 285.316364 252 
L 285.316364 249.871597 
L 282.272727 249.871597 
z
" clip-path="url(#p22ec33c4d3)" style="fill: #1f77b4"/>
   </g>
   <g id="patch_74">
    <path d="M 285.316364 252 
L 288.36 252 
L 288.36 249.792767 
L 285.316364 249.792767 
z
" clip-path="url(#p22ec33c4d3)" style="fill: #1f77b4"/>
   </g>
   <g id="patch_75">
    <path d="M 288.36 252 
L 291.403636 252 
L 291.403636 249.240959 
L 288.36 249.240959 
z
" clip-path="url(#p22ec33c4d3)" style="fill: #1f77b4"/>
   </g>
   <g id="patch_76">
    <path d="M 291.403636 252 
L 294.447273 252 
L 294.447273 250.108086 
L 291.403636 250.108086 
z
" clip-path="url(#p22ec33c4d3)" style="fill: #1f77b4"/>
   </g>
   <g id="patch_77">
    <path d="M 294.447273 252 
L 297.490909 252 
L 297.490909 249.477448 
L 294.447273 249.477448 
z
" clip-path="url(#p22ec33c4d3)" style="fill: #1f77b4"/>
   </g>
   <g id="patch_78">
    <path d="M 297.490909 252 
L 300.534545 252 
L 300.534545 250.029257 
L 297.490909 250.029257 
z
" clip-path="url(#p22ec33c4d3)" style="fill: #1f77b4"/>
   </g>
   <g id="patch_79">
    <path d="M 300.534545 252 
L 303.578182 252 
L 303.578182 248.610321 
L 300.534545 248.610321 
z
" clip-path="url(#p22ec33c4d3)" style="fill: #1f77b4"/>
   </g>
   <g id="patch_80">
    <path d="M 303.578182 252 
L 306.621818 252 
L 306.621818 249.556278 
L 303.578182 249.556278 
z
" clip-path="url(#p22ec33c4d3)" style="fill: #1f77b4"/>
   </g>
   <g id="patch_81">
    <path d="M 306.621818 252 
L 309.665455 252 
L 309.665455 249.950427 
L 306.621818 249.950427 
z
" clip-path="url(#p22ec33c4d3)" style="fill: #1f77b4"/>
   </g>
   <g id="patch_82">
    <path d="M 309.665455 252 
L 312.709091 252 
L 312.709091 250.581065 
L 309.665455 250.581065 
z
" clip-path="url(#p22ec33c4d3)" style="fill: #1f77b4"/>
   </g>
   <g id="patch_83">
    <path d="M 312.709091 252 
L 315.752727 252 
L 315.752727 250.896384 
L 312.709091 250.896384 
z
" clip-path="url(#p22ec33c4d3)" style="fill: #1f77b4"/>
   </g>
   <g id="patch_84">
    <path d="M 315.752727 252 
L 318.796364 252 
L 318.796364 250.502235 
L 315.752727 250.502235 
z
" clip-path="url(#p22ec33c4d3)" style="fill: #1f77b4"/>
   </g>
   <g id="patch_85">
    <path d="M 318.796364 252 
L 321.84 252 
L 321.84 249.871597 
L 318.796364 249.871597 
z
" clip-path="url(#p22ec33c4d3)" style="fill: #1f77b4"/>
   </g>
   <g id="patch_86">
    <path d="M 321.84 252 
L 324.883636 252 
L 324.883636 250.423405 
L 321.84 250.423405 
z
" clip-path="url(#p22ec33c4d3)" style="fill: #1f77b4"/>
   </g>
   <g id="patch_87">
    <path d="M 324.883636 252 
L 327.927273 252 
L 327.927273 249.871597 
L 324.883636 249.871597 
z
" clip-path="url(#p22ec33c4d3)" style="fill: #1f77b4"/>
   </g>
   <g id="patch_88">
    <path d="M 327.927273 252 
L 330.970909 252 
L 330.970909 250.423405 
L 327.927273 250.423405 
z
" clip-path="url(#p22ec33c4d3)" style="fill: #1f77b4"/>
   </g>
   <g id="patch_89">
    <path d="M 330.970909 252 
L 334.014545 252 
L 334.014545 250.029257 
L 330.970909 250.029257 
z
" clip-path="url(#p22ec33c4d3)" style="fill: #1f77b4"/>
   </g>
   <g id="patch_90">
    <path d="M 334.014545 252 
L 337.058182 252 
L 337.058182 249.950427 
L 334.014545 249.950427 
z
" clip-path="url(#p22ec33c4d3)" style="fill: #1f77b4"/>
   </g>
   <g id="patch_91">
    <path d="M 337.058182 252 
L 340.101818 252 
L 340.101818 249.871597 
L 337.058182 249.871597 
z
" clip-path="url(#p22ec33c4d3)" style="fill: #1f77b4"/>
   </g>
   <g id="patch_92">
    <path d="M 340.101818 252 
L 343.145455 252 
L 343.145455 249.950427 
L 340.101818 249.950427 
z
" clip-path="url(#p22ec33c4d3)" style="fill: #1f77b4"/>
   </g>
   <g id="patch_93">
    <path d="M 343.145455 252 
L 346.189091 252 
L 346.189091 249.0833 
L 343.145455 249.0833 
z
" clip-path="url(#p22ec33c4d3)" style="fill: #1f77b4"/>
   </g>
   <g id="patch_94">
    <path d="M 346.189091 252 
L 349.232727 252 
L 349.232727 250.975213 
L 346.189091 250.975213 
z
" clip-path="url(#p22ec33c4d3)" style="fill: #1f77b4"/>
   </g>
   <g id="patch_95">
    <path d="M 349.232727 252 
L 352.276364 252 
L 352.276364 249.713938 
L 349.232727 249.713938 
z
" clip-path="url(#p22ec33c4d3)" style="fill: #1f77b4"/>
   </g>
   <g id="patch_96">
    <path d="M 352.276364 252 
L 355.32 252 
L 355.32 250.502235 
L 352.276364 250.502235 
z
" clip-path="url(#p22ec33c4d3)" style="fill: #1f77b4"/>
   </g>
   <g id="patch_97">
    <path d="M 355.32 252 
L 358.363636 252 
L 358.363636 250.896384 
L 355.32 250.896384 
z
" clip-path="url(#p22ec33c4d3)" style="fill: #1f77b4"/>
   </g>
   <g id="patch_98">
    <path d="M 358.363636 252 
L 361.407273 252 
L 361.407273 250.423405 
L 358.363636 250.423405 
z
" clip-path="url(#p22ec33c4d3)" style="fill: #1f77b4"/>
   </g>
   <g id="patch_99">
    <path d="M 361.407273 252 
L 364.450909 252 
L 364.450909 250.896384 
L 361.407273 250.896384 
z
" clip-path="url(#p22ec33c4d3)" style="fill: #1f77b4"/>
   </g>
   <g id="patch_100">
    <path d="M 364.450909 252 
L 367.494545 252 
L 367.494545 250.738724 
L 364.450909 250.738724 
z
" clip-path="url(#p22ec33c4d3)" style="fill: #1f77b4"/>
   </g>
   <g id="patch_101">
    <path d="M 367.494545 252 
L 370.538182 252 
L 370.538182 250.975213 
L 367.494545 250.975213 
z
" clip-path="url(#p22ec33c4d3)" style="fill: #1f77b4"/>
   </g>
   <g id="patch_102">
    <path d="M 370.538182 252 
L 373.581818 252 
L 373.581818 250.738724 
L 370.538182 250.738724 
z
" clip-path="url(#p22ec33c4d3)" style="fill: #1f77b4"/>
   </g>
   <g id="matplotlib.axis_1">
    <g id="xtick_1">
     <g id="line2d_1">
      <defs>
       <path id="mf4282d6c1e" d="M 0 0 
L 0 3.5 
" style="stroke: #000000; stroke-width: 0.8"/>
      </defs>
      <g>
       <use xlink:href="#mf4282d6c1e" x="68.760767" y="252" style="stroke: #000000; stroke-width: 0.8"/>
      </g>
     </g>
     <g id="text_1">
      <!-- 0 -->
      <g transform="translate(65.579517 266.598437)scale(0.1 -0.1)">
       <defs>
        <path id="DejaVuSans-30" d="M 2034 4250 
Q 1547 4250 1301 3770 
Q 1056 3291 1056 2328 
Q 1056 1369 1301 889 
Q 1547 409 2034 409 
Q 2525 409 2770 889 
Q 3016 1369 3016 2328 
Q 3016 3291 2770 3770 
Q 2525 4250 2034 4250 
z
M 2034 4750 
Q 2819 4750 3233 4129 
Q 3647 3509 3647 2328 
Q 3647 1150 3233 529 
Q 2819 -91 2034 -91 
Q 1250 -91 836 529 
Q 422 1150 422 2328 
Q 422 3509 836 4129 
Q 1250 4750 2034 4750 
z
" transform="scale(0.015625)"/>
       </defs>
       <use xlink:href="#DejaVuSans-30"/>
      </g>
     </g>
    </g>
    <g id="xtick_2">
     <g id="line2d_2">
      <g>
       <use xlink:href="#mf4282d6c1e" x="129.749373" y="252" style="stroke: #000000; stroke-width: 0.8"/>
      </g>
     </g>
     <g id="text_2">
      <!-- 2000 -->
      <g transform="translate(117.024373 266.598437)scale(0.1 -0.1)">
       <defs>
        <path id="DejaVuSans-32" d="M 1228 531 
L 3431 531 
L 3431 0 
L 469 0 
L 469 531 
Q 828 903 1448 1529 
Q 2069 2156 2228 2338 
Q 2531 2678 2651 2914 
Q 2772 3150 2772 3378 
Q 2772 3750 2511 3984 
Q 2250 4219 1831 4219 
Q 1534 4219 1204 4116 
Q 875 4013 500 3803 
L 500 4441 
Q 881 4594 1212 4672 
Q 1544 4750 1819 4750 
Q 2544 4750 2975 4387 
Q 3406 4025 3406 3419 
Q 3406 3131 3298 2873 
Q 3191 2616 2906 2266 
Q 2828 2175 2409 1742 
Q 1991 1309 1228 531 
z
" transform="scale(0.015625)"/>
       </defs>
       <use xlink:href="#DejaVuSans-32"/>
       <use xlink:href="#DejaVuSans-30" x="63.623047"/>
       <use xlink:href="#DejaVuSans-30" x="127.246094"/>
       <use xlink:href="#DejaVuSans-30" x="190.869141"/>
      </g>
     </g>
    </g>
    <g id="xtick_3">
     <g id="line2d_3">
      <g>
       <use xlink:href="#mf4282d6c1e" x="190.737979" y="252" style="stroke: #000000; stroke-width: 0.8"/>
      </g>
     </g>
     <g id="text_3">
      <!-- 4000 -->
      <g transform="translate(178.012979 266.598437)scale(0.1 -0.1)">
       <defs>
        <path id="DejaVuSans-34" d="M 2419 4116 
L 825 1625 
L 2419 1625 
L 2419 4116 
z
M 2253 4666 
L 3047 4666 
L 3047 1625 
L 3713 1625 
L 3713 1100 
L 3047 1100 
L 3047 0 
L 2419 0 
L 2419 1100 
L 313 1100 
L 313 1709 
L 2253 4666 
z
" transform="scale(0.015625)"/>
       </defs>
       <use xlink:href="#DejaVuSans-34"/>
       <use xlink:href="#DejaVuSans-30" x="63.623047"/>
       <use xlink:href="#DejaVuSans-30" x="127.246094"/>
       <use xlink:href="#DejaVuSans-30" x="190.869141"/>
      </g>
     </g>
    </g>
    <g id="xtick_4">
     <g id="line2d_4">
      <g>
       <use xlink:href="#mf4282d6c1e" x="251.726584" y="252" style="stroke: #000000; stroke-width: 0.8"/>
      </g>
     </g>
     <g id="text_4">
      <!-- 6000 -->
      <g transform="translate(239.001584 266.598437)scale(0.1 -0.1)">
       <defs>
        <path id="DejaVuSans-36" d="M 2113 2584 
Q 1688 2584 1439 2293 
Q 1191 2003 1191 1497 
Q 1191 994 1439 701 
Q 1688 409 2113 409 
Q 2538 409 2786 701 
Q 3034 994 3034 1497 
Q 3034 2003 2786 2293 
Q 2538 2584 2113 2584 
z
M 3366 4563 
L 3366 3988 
Q 3128 4100 2886 4159 
Q 2644 4219 2406 4219 
Q 1781 4219 1451 3797 
Q 1122 3375 1075 2522 
Q 1259 2794 1537 2939 
Q 1816 3084 2150 3084 
Q 2853 3084 3261 2657 
Q 3669 2231 3669 1497 
Q 3669 778 3244 343 
Q 2819 -91 2113 -91 
Q 1303 -91 875 529 
Q 447 1150 447 2328 
Q 447 3434 972 4092 
Q 1497 4750 2381 4750 
Q 2619 4750 2861 4703 
Q 3103 4656 3366 4563 
z
" transform="scale(0.015625)"/>
       </defs>
       <use xlink:href="#DejaVuSans-36"/>
       <use xlink:href="#DejaVuSans-30" x="63.623047"/>
       <use xlink:href="#DejaVuSans-30" x="127.246094"/>
       <use xlink:href="#DejaVuSans-30" x="190.869141"/>
      </g>
     </g>
    </g>
    <g id="xtick_5">
     <g id="line2d_5">
      <g>
       <use xlink:href="#mf4282d6c1e" x="312.71519" y="252" style="stroke: #000000; stroke-width: 0.8"/>
      </g>
     </g>
     <g id="text_5">
      <!-- 8000 -->
      <g transform="translate(299.99019 266.598437)scale(0.1 -0.1)">
       <defs>
        <path id="DejaVuSans-38" d="M 2034 2216 
Q 1584 2216 1326 1975 
Q 1069 1734 1069 1313 
Q 1069 891 1326 650 
Q 1584 409 2034 409 
Q 2484 409 2743 651 
Q 3003 894 3003 1313 
Q 3003 1734 2745 1975 
Q 2488 2216 2034 2216 
z
M 1403 2484 
Q 997 2584 770 2862 
Q 544 3141 544 3541 
Q 544 4100 942 4425 
Q 1341 4750 2034 4750 
Q 2731 4750 3128 4425 
Q 3525 4100 3525 3541 
Q 3525 3141 3298 2862 
Q 3072 2584 2669 2484 
Q 3125 2378 3379 2068 
Q 3634 1759 3634 1313 
Q 3634 634 3220 271 
Q 2806 -91 2034 -91 
Q 1263 -91 848 271 
Q 434 634 434 1313 
Q 434 1759 690 2068 
Q 947 2378 1403 2484 
z
M 1172 3481 
Q 1172 3119 1398 2916 
Q 1625 2713 2034 2713 
Q 2441 2713 2670 2916 
Q 2900 3119 2900 3481 
Q 2900 3844 2670 4047 
Q 2441 4250 2034 4250 
Q 1625 4250 1398 4047 
Q 1172 3844 1172 3481 
z
" transform="scale(0.015625)"/>
       </defs>
       <use xlink:href="#DejaVuSans-38"/>
       <use xlink:href="#DejaVuSans-30" x="63.623047"/>
       <use xlink:href="#DejaVuSans-30" x="127.246094"/>
       <use xlink:href="#DejaVuSans-30" x="190.869141"/>
      </g>
     </g>
    </g>
    <g id="xtick_6">
     <g id="line2d_6">
      <g>
       <use xlink:href="#mf4282d6c1e" x="373.703795" y="252" style="stroke: #000000; stroke-width: 0.8"/>
      </g>
     </g>
     <g id="text_6">
      <!-- 10000 -->
      <g transform="translate(357.797545 266.598437)scale(0.1 -0.1)">
       <defs>
        <path id="DejaVuSans-31" d="M 794 531 
L 1825 531 
L 1825 4091 
L 703 3866 
L 703 4441 
L 1819 4666 
L 2450 4666 
L 2450 531 
L 3481 531 
L 3481 0 
L 794 0 
L 794 531 
z
" transform="scale(0.015625)"/>
       </defs>
       <use xlink:href="#DejaVuSans-31"/>
       <use xlink:href="#DejaVuSans-30" x="63.623047"/>
       <use xlink:href="#DejaVuSans-30" x="127.246094"/>
       <use xlink:href="#DejaVuSans-30" x="190.869141"/>
       <use xlink:href="#DejaVuSans-30" x="254.492188"/>
      </g>
     </g>
    </g>
    <g id="text_7">
     <!-- Lyric Length [characters] -->
     <g transform="translate(159.042969 280.276563)scale(0.1 -0.1)">
      <defs>
       <path id="DejaVuSans-4c" d="M 628 4666 
L 1259 4666 
L 1259 531 
L 3531 531 
L 3531 0 
L 628 0 
L 628 4666 
z
" transform="scale(0.015625)"/>
       <path id="DejaVuSans-79" d="M 2059 -325 
Q 1816 -950 1584 -1140 
Q 1353 -1331 966 -1331 
L 506 -1331 
L 506 -850 
L 844 -850 
Q 1081 -850 1212 -737 
Q 1344 -625 1503 -206 
L 1606 56 
L 191 3500 
L 800 3500 
L 1894 763 
L 2988 3500 
L 3597 3500 
L 2059 -325 
z
" transform="scale(0.015625)"/>
       <path id="DejaVuSans-72" d="M 2631 2963 
Q 2534 3019 2420 3045 
Q 2306 3072 2169 3072 
Q 1681 3072 1420 2755 
Q 1159 2438 1159 1844 
L 1159 0 
L 581 0 
L 581 3500 
L 1159 3500 
L 1159 2956 
Q 1341 3275 1631 3429 
Q 1922 3584 2338 3584 
Q 2397 3584 2469 3576 
Q 2541 3569 2628 3553 
L 2631 2963 
z
" transform="scale(0.015625)"/>
       <path id="DejaVuSans-69" d="M 603 3500 
L 1178 3500 
L 1178 0 
L 603 0 
L 603 3500 
z
M 603 4863 
L 1178 4863 
L 1178 4134 
L 603 4134 
L 603 4863 
z
" transform="scale(0.015625)"/>
       <path id="DejaVuSans-63" d="M 3122 3366 
L 3122 2828 
Q 2878 2963 2633 3030 
Q 2388 3097 2138 3097 
Q 1578 3097 1268 2742 
Q 959 2388 959 1747 
Q 959 1106 1268 751 
Q 1578 397 2138 397 
Q 2388 397 2633 464 
Q 2878 531 3122 666 
L 3122 134 
Q 2881 22 2623 -34 
Q 2366 -91 2075 -91 
Q 1284 -91 818 406 
Q 353 903 353 1747 
Q 353 2603 823 3093 
Q 1294 3584 2113 3584 
Q 2378 3584 2631 3529 
Q 2884 3475 3122 3366 
z
" transform="scale(0.015625)"/>
       <path id="DejaVuSans-20" transform="scale(0.015625)"/>
       <path id="DejaVuSans-65" d="M 3597 1894 
L 3597 1613 
L 953 1613 
Q 991 1019 1311 708 
Q 1631 397 2203 397 
Q 2534 397 2845 478 
Q 3156 559 3463 722 
L 3463 178 
Q 3153 47 2828 -22 
Q 2503 -91 2169 -91 
Q 1331 -91 842 396 
Q 353 884 353 1716 
Q 353 2575 817 3079 
Q 1281 3584 2069 3584 
Q 2775 3584 3186 3129 
Q 3597 2675 3597 1894 
z
M 3022 2063 
Q 3016 2534 2758 2815 
Q 2500 3097 2075 3097 
Q 1594 3097 1305 2825 
Q 1016 2553 972 2059 
L 3022 2063 
z
" transform="scale(0.015625)"/>
       <path id="DejaVuSans-6e" d="M 3513 2113 
L 3513 0 
L 2938 0 
L 2938 2094 
Q 2938 2591 2744 2837 
Q 2550 3084 2163 3084 
Q 1697 3084 1428 2787 
Q 1159 2491 1159 1978 
L 1159 0 
L 581 0 
L 581 3500 
L 1159 3500 
L 1159 2956 
Q 1366 3272 1645 3428 
Q 1925 3584 2291 3584 
Q 2894 3584 3203 3211 
Q 3513 2838 3513 2113 
z
" transform="scale(0.015625)"/>
       <path id="DejaVuSans-67" d="M 2906 1791 
Q 2906 2416 2648 2759 
Q 2391 3103 1925 3103 
Q 1463 3103 1205 2759 
Q 947 2416 947 1791 
Q 947 1169 1205 825 
Q 1463 481 1925 481 
Q 2391 481 2648 825 
Q 2906 1169 2906 1791 
z
M 3481 434 
Q 3481 -459 3084 -895 
Q 2688 -1331 1869 -1331 
Q 1566 -1331 1297 -1286 
Q 1028 -1241 775 -1147 
L 775 -588 
Q 1028 -725 1275 -790 
Q 1522 -856 1778 -856 
Q 2344 -856 2625 -561 
Q 2906 -266 2906 331 
L 2906 616 
Q 2728 306 2450 153 
Q 2172 0 1784 0 
Q 1141 0 747 490 
Q 353 981 353 1791 
Q 353 2603 747 3093 
Q 1141 3584 1784 3584 
Q 2172 3584 2450 3431 
Q 2728 3278 2906 2969 
L 2906 3500 
L 3481 3500 
L 3481 434 
z
" transform="scale(0.015625)"/>
       <path id="DejaVuSans-74" d="M 1172 4494 
L 1172 3500 
L 2356 3500 
L 2356 3053 
L 1172 3053 
L 1172 1153 
Q 1172 725 1289 603 
Q 1406 481 1766 481 
L 2356 481 
L 2356 0 
L 1766 0 
Q 1100 0 847 248 
Q 594 497 594 1153 
L 594 3053 
L 172 3053 
L 172 3500 
L 594 3500 
L 594 4494 
L 1172 4494 
z
" transform="scale(0.015625)"/>
       <path id="DejaVuSans-68" d="M 3513 2113 
L 3513 0 
L 2938 0 
L 2938 2094 
Q 2938 2591 2744 2837 
Q 2550 3084 2163 3084 
Q 1697 3084 1428 2787 
Q 1159 2491 1159 1978 
L 1159 0 
L 581 0 
L 581 4863 
L 1159 4863 
L 1159 2956 
Q 1366 3272 1645 3428 
Q 1925 3584 2291 3584 
Q 2894 3584 3203 3211 
Q 3513 2838 3513 2113 
z
" transform="scale(0.015625)"/>
       <path id="DejaVuSans-5b" d="M 550 4863 
L 1875 4863 
L 1875 4416 
L 1125 4416 
L 1125 -397 
L 1875 -397 
L 1875 -844 
L 550 -844 
L 550 4863 
z
" transform="scale(0.015625)"/>
       <path id="DejaVuSans-61" d="M 2194 1759 
Q 1497 1759 1228 1600 
Q 959 1441 959 1056 
Q 959 750 1161 570 
Q 1363 391 1709 391 
Q 2188 391 2477 730 
Q 2766 1069 2766 1631 
L 2766 1759 
L 2194 1759 
z
M 3341 1997 
L 3341 0 
L 2766 0 
L 2766 531 
Q 2569 213 2275 61 
Q 1981 -91 1556 -91 
Q 1019 -91 701 211 
Q 384 513 384 1019 
Q 384 1609 779 1909 
Q 1175 2209 1959 2209 
L 2766 2209 
L 2766 2266 
Q 2766 2663 2505 2880 
Q 2244 3097 1772 3097 
Q 1472 3097 1187 3025 
Q 903 2953 641 2809 
L 641 3341 
Q 956 3463 1253 3523 
Q 1550 3584 1831 3584 
Q 2591 3584 2966 3190 
Q 3341 2797 3341 1997 
z
" transform="scale(0.015625)"/>
       <path id="DejaVuSans-73" d="M 2834 3397 
L 2834 2853 
Q 2591 2978 2328 3040 
Q 2066 3103 1784 3103 
Q 1356 3103 1142 2972 
Q 928 2841 928 2578 
Q 928 2378 1081 2264 
Q 1234 2150 1697 2047 
L 1894 2003 
Q 2506 1872 2764 1633 
Q 3022 1394 3022 966 
Q 3022 478 2636 193 
Q 2250 -91 1575 -91 
Q 1294 -91 989 -36 
Q 684 19 347 128 
L 347 722 
Q 666 556 975 473 
Q 1284 391 1588 391 
Q 1994 391 2212 530 
Q 2431 669 2431 922 
Q 2431 1156 2273 1281 
Q 2116 1406 1581 1522 
L 1381 1569 
Q 847 1681 609 1914 
Q 372 2147 372 2553 
Q 372 3047 722 3315 
Q 1072 3584 1716 3584 
Q 2034 3584 2315 3537 
Q 2597 3491 2834 3397 
z
" transform="scale(0.015625)"/>
       <path id="DejaVuSans-5d" d="M 1947 4863 
L 1947 -844 
L 622 -844 
L 622 -397 
L 1369 -397 
L 1369 4416 
L 622 4416 
L 622 4863 
L 1947 4863 
z
" transform="scale(0.015625)"/>
      </defs>
      <use xlink:href="#DejaVuSans-4c"/>
      <use xlink:href="#DejaVuSans-79" x="46.587891"/>
      <use xlink:href="#DejaVuSans-72" x="105.767578"/>
      <use xlink:href="#DejaVuSans-69" x="146.880859"/>
      <use xlink:href="#DejaVuSans-63" x="174.664062"/>
      <use xlink:href="#DejaVuSans-20" x="229.644531"/>
      <use xlink:href="#DejaVuSans-4c" x="261.431641"/>
      <use xlink:href="#DejaVuSans-65" x="315.394531"/>
      <use xlink:href="#DejaVuSans-6e" x="376.917969"/>
      <use xlink:href="#DejaVuSans-67" x="440.296875"/>
      <use xlink:href="#DejaVuSans-74" x="503.773438"/>
      <use xlink:href="#DejaVuSans-68" x="542.982422"/>
      <use xlink:href="#DejaVuSans-20" x="606.361328"/>
      <use xlink:href="#DejaVuSans-5b" x="638.148438"/>
      <use xlink:href="#DejaVuSans-63" x="677.162109"/>
      <use xlink:href="#DejaVuSans-68" x="732.142578"/>
      <use xlink:href="#DejaVuSans-61" x="795.521484"/>
      <use xlink:href="#DejaVuSans-72" x="856.800781"/>
      <use xlink:href="#DejaVuSans-61" x="897.914062"/>
      <use xlink:href="#DejaVuSans-63" x="959.193359"/>
      <use xlink:href="#DejaVuSans-74" x="1014.173828"/>
      <use xlink:href="#DejaVuSans-65" x="1053.382812"/>
      <use xlink:href="#DejaVuSans-72" x="1114.90625"/>
      <use xlink:href="#DejaVuSans-73" x="1156.019531"/>
      <use xlink:href="#DejaVuSans-5d" x="1208.119141"/>
     </g>
    </g>
   </g>
   <g id="matplotlib.axis_2">
    <g id="ytick_1">
     <g id="line2d_7">
      <defs>
       <path id="m313a3fea15" d="M 0 0 
L -3.5 0 
" style="stroke: #000000; stroke-width: 0.8"/>
      </defs>
      <g>
       <use xlink:href="#m313a3fea15" x="54" y="252" style="stroke: #000000; stroke-width: 0.8"/>
      </g>
     </g>
     <g id="text_8">
      <!-- 0 -->
      <g transform="translate(40.6375 255.799219)scale(0.1 -0.1)">
       <use xlink:href="#DejaVuSans-30"/>
      </g>
     </g>
    </g>
    <g id="ytick_2">
     <g id="line2d_8">
      <g>
       <use xlink:href="#m313a3fea15" x="54" y="212.585132" style="stroke: #000000; stroke-width: 0.8"/>
      </g>
     </g>
     <g id="text_9">
      <!-- 500 -->
      <g transform="translate(27.9125 216.384351)scale(0.1 -0.1)">
       <defs>
        <path id="DejaVuSans-35" d="M 691 4666 
L 3169 4666 
L 3169 4134 
L 1269 4134 
L 1269 2991 
Q 1406 3038 1543 3061 
Q 1681 3084 1819 3084 
Q 2600 3084 3056 2656 
Q 3513 2228 3513 1497 
Q 3513 744 3044 326 
Q 2575 -91 1722 -91 
Q 1428 -91 1123 -41 
Q 819 9 494 109 
L 494 744 
Q 775 591 1075 516 
Q 1375 441 1709 441 
Q 2250 441 2565 725 
Q 2881 1009 2881 1497 
Q 2881 1984 2565 2268 
Q 2250 2553 1709 2553 
Q 1456 2553 1204 2497 
Q 953 2441 691 2322 
L 691 4666 
z
" transform="scale(0.015625)"/>
       </defs>
       <use xlink:href="#DejaVuSans-35"/>
       <use xlink:href="#DejaVuSans-30" x="63.623047"/>
       <use xlink:href="#DejaVuSans-30" x="127.246094"/>
      </g>
     </g>
    </g>
    <g id="ytick_3">
     <g id="line2d_9">
      <g>
       <use xlink:href="#m313a3fea15" x="54" y="173.170265" style="stroke: #000000; stroke-width: 0.8"/>
      </g>
     </g>
     <g id="text_10">
      <!-- 1000 -->
      <g transform="translate(21.55 176.969484)scale(0.1 -0.1)">
       <use xlink:href="#DejaVuSans-31"/>
       <use xlink:href="#DejaVuSans-30" x="63.623047"/>
       <use xlink:href="#DejaVuSans-30" x="127.246094"/>
       <use xlink:href="#DejaVuSans-30" x="190.869141"/>
      </g>
     </g>
    </g>
    <g id="ytick_4">
     <g id="line2d_10">
      <g>
       <use xlink:href="#m313a3fea15" x="54" y="133.755397" style="stroke: #000000; stroke-width: 0.8"/>
      </g>
     </g>
     <g id="text_11">
      <!-- 1500 -->
      <g transform="translate(21.55 137.554616)scale(0.1 -0.1)">
       <use xlink:href="#DejaVuSans-31"/>
       <use xlink:href="#DejaVuSans-35" x="63.623047"/>
       <use xlink:href="#DejaVuSans-30" x="127.246094"/>
       <use xlink:href="#DejaVuSans-30" x="190.869141"/>
      </g>
     </g>
    </g>
    <g id="ytick_5">
     <g id="line2d_11">
      <g>
       <use xlink:href="#m313a3fea15" x="54" y="94.34053" style="stroke: #000000; stroke-width: 0.8"/>
      </g>
     </g>
     <g id="text_12">
      <!-- 2000 -->
      <g transform="translate(21.55 98.139748)scale(0.1 -0.1)">
       <use xlink:href="#DejaVuSans-32"/>
       <use xlink:href="#DejaVuSans-30" x="63.623047"/>
       <use xlink:href="#DejaVuSans-30" x="127.246094"/>
       <use xlink:href="#DejaVuSans-30" x="190.869141"/>
      </g>
     </g>
    </g>
    <g id="ytick_6">
     <g id="line2d_12">
      <g>
       <use xlink:href="#m313a3fea15" x="54" y="54.925662" style="stroke: #000000; stroke-width: 0.8"/>
      </g>
     </g>
     <g id="text_13">
      <!-- 2500 -->
      <g transform="translate(21.55 58.724881)scale(0.1 -0.1)">
       <use xlink:href="#DejaVuSans-32"/>
       <use xlink:href="#DejaVuSans-35" x="63.623047"/>
       <use xlink:href="#DejaVuSans-30" x="127.246094"/>
       <use xlink:href="#DejaVuSans-30" x="190.869141"/>
      </g>
     </g>
    </g>
    <g id="text_14">
     <!-- Frequency -->
     <g transform="translate(15.470312 169.109688)rotate(-90)scale(0.1 -0.1)">
      <defs>
       <path id="DejaVuSans-46" d="M 628 4666 
L 3309 4666 
L 3309 4134 
L 1259 4134 
L 1259 2759 
L 3109 2759 
L 3109 2228 
L 1259 2228 
L 1259 0 
L 628 0 
L 628 4666 
z
" transform="scale(0.015625)"/>
       <path id="DejaVuSans-71" d="M 947 1747 
Q 947 1113 1208 752 
Q 1469 391 1925 391 
Q 2381 391 2643 752 
Q 2906 1113 2906 1747 
Q 2906 2381 2643 2742 
Q 2381 3103 1925 3103 
Q 1469 3103 1208 2742 
Q 947 2381 947 1747 
z
M 2906 525 
Q 2725 213 2448 61 
Q 2172 -91 1784 -91 
Q 1150 -91 751 415 
Q 353 922 353 1747 
Q 353 2572 751 3078 
Q 1150 3584 1784 3584 
Q 2172 3584 2448 3432 
Q 2725 3281 2906 2969 
L 2906 3500 
L 3481 3500 
L 3481 -1331 
L 2906 -1331 
L 2906 525 
z
" transform="scale(0.015625)"/>
       <path id="DejaVuSans-75" d="M 544 1381 
L 544 3500 
L 1119 3500 
L 1119 1403 
Q 1119 906 1312 657 
Q 1506 409 1894 409 
Q 2359 409 2629 706 
Q 2900 1003 2900 1516 
L 2900 3500 
L 3475 3500 
L 3475 0 
L 2900 0 
L 2900 538 
Q 2691 219 2414 64 
Q 2138 -91 1772 -91 
Q 1169 -91 856 284 
Q 544 659 544 1381 
z
M 1991 3584 
L 1991 3584 
z
" transform="scale(0.015625)"/>
      </defs>
      <use xlink:href="#DejaVuSans-46"/>
      <use xlink:href="#DejaVuSans-72" x="50.269531"/>
      <use xlink:href="#DejaVuSans-65" x="89.132812"/>
      <use xlink:href="#DejaVuSans-71" x="150.65625"/>
      <use xlink:href="#DejaVuSans-75" x="214.132812"/>
      <use xlink:href="#DejaVuSans-65" x="277.511719"/>
      <use xlink:href="#DejaVuSans-6e" x="339.035156"/>
      <use xlink:href="#DejaVuSans-63" x="402.414062"/>
      <use xlink:href="#DejaVuSans-79" x="457.394531"/>
     </g>
    </g>
   </g>
   <g id="patch_103">
    <path d="M 54 252 
L 54 34.56 
" style="fill: none; stroke: #000000; stroke-width: 0.8; stroke-linejoin: miter; stroke-linecap: square"/>
   </g>
   <g id="patch_104">
    <path d="M 388.8 252 
L 388.8 34.56 
" style="fill: none; stroke: #000000; stroke-width: 0.8; stroke-linejoin: miter; stroke-linecap: square"/>
   </g>
   <g id="patch_105">
    <path d="M 54 252 
L 388.8 252 
" style="fill: none; stroke: #000000; stroke-width: 0.8; stroke-linejoin: miter; stroke-linecap: square"/>
   </g>
   <g id="patch_106">
    <path d="M 54 34.56 
L 388.8 34.56 
" style="fill: none; stroke: #000000; stroke-width: 0.8; stroke-linejoin: miter; stroke-linecap: square"/>
   </g>
  </g>
 </g>
 <defs>
  <clipPath id="p22ec33c4d3">
   <rect x="54" y="34.56" width="334.8" height="217.44"/>
  </clipPath>
 </defs>
</svg>
